<svg version="1.1" id="Layer_1" xmlns="http://www.w3.org/2000/svg" xmlns:xlink="http://www.w3.org/1999/xlink" x="0px" y="0px" width="100px" height="100px" viewBox="0 0 100 100" enable-background="new 0 0 100 100" xml:space="preserve">
<path d="M67.736,61.583c-1.408,0-3.935,0-6.912,0c0.042-0.371,0.11-0.731,0.11-1.111v-5.663c2.847,0,5.297,0,6.802,0
	c7.483,0,13.546-6.066,13.546-13.546c0-7.481-6.062-13.548-13.546-13.548c-2.084,0-4.045,0.491-5.805,1.335l-2.741-2.74
	c-3.144-7.142-10.241-12.142-18.547-12.142c-11.224,0-20.32,9.096-20.32,20.32c0,11.214,9.083,20.304,20.293,20.32v5.663
	c0,0.381,0.072,0.742,0.111,1.111c-0.027,0-0.06,0-0.086,0c-14.964,0-27.094-12.131-27.094-27.095
	c0-14.963,12.13-27.094,27.094-27.094c10.168,0,19.016,5.609,23.651,13.895c1.124-0.193,2.264-0.348,3.442-0.348
	c11.223,0,20.319,9.098,20.319,20.322C88.057,52.483,78.96,61.583,67.736,61.583z M38.804,44.237c-1.323-1.319-1.323-3.466,0-4.787
	l9.579-9.581c1.321-1.323,3.468-1.323,4.788,0l9.578,9.581c1.322,1.321,1.322,3.467,0,4.787c-1.322,1.323-3.468,1.323-4.788,0
	l-3.8-3.796v20.031c0,1.868-1.517,3.386-3.383,3.386c-1.872,0-3.388-1.518-3.388-3.386V40.44l-3.797,3.796
	C42.27,45.56,40.126,45.56,38.804,44.237z"></path>
<g>
	<path d="M25.982,80.994c-0.64,0.557-1.524,0.835-2.653,0.835c-1.145,0-2.031-0.276-2.659-0.829
		c-0.627-0.553-0.941-1.405-0.941-2.559v-5.259h1.859v5.259c0,0.229,0.02,0.454,0.06,0.676c0.039,0.221,0.122,0.416,0.249,0.586
		s0.302,0.308,0.527,0.414c0.225,0.107,0.527,0.16,0.906,0.16c0.664,0,1.121-0.147,1.374-0.444c0.253-0.296,0.379-0.76,0.379-1.392
		v-5.259h1.86v5.259C26.942,79.587,26.622,80.438,25.982,80.994z"></path>
	<path d="M29.666,75.516v0.782h0.023c0.206-0.332,0.466-0.572,0.782-0.723c0.316-0.149,0.664-0.225,1.042-0.225
		c0.481,0,0.896,0.091,1.244,0.272c0.347,0.182,0.635,0.422,0.865,0.722c0.229,0.301,0.398,0.65,0.509,1.049
		c0.11,0.398,0.166,0.815,0.166,1.249c0,0.411-0.055,0.806-0.166,1.185c-0.111,0.379-0.278,0.715-0.503,1.007
		s-0.505,0.525-0.841,0.699c-0.336,0.174-0.729,0.261-1.179,0.261c-0.379,0-0.729-0.077-1.048-0.231s-0.583-0.381-0.788-0.681
		h-0.024v2.901h-1.682v-8.268H29.666z M31.851,80.372c0.186-0.11,0.335-0.255,0.45-0.432c0.114-0.178,0.195-0.386,0.243-0.622
		c0.047-0.237,0.071-0.478,0.071-0.723s-0.026-0.485-0.077-0.723s-0.136-0.448-0.254-0.634c-0.119-0.186-0.271-0.335-0.456-0.45
		c-0.186-0.114-0.413-0.172-0.681-0.172c-0.276,0-0.507,0.058-0.693,0.172c-0.186,0.115-0.336,0.263-0.45,0.444
		c-0.115,0.182-0.195,0.391-0.243,0.628s-0.071,0.481-0.071,0.734c0,0.245,0.025,0.485,0.077,0.723
		c0.051,0.236,0.134,0.444,0.249,0.622c0.114,0.177,0.267,0.321,0.456,0.432c0.189,0.111,0.418,0.166,0.687,0.166
		C31.435,80.538,31.666,80.483,31.851,80.372z"></path>
	<path d="M36.737,73.183v8.457h-1.682v-8.457H36.737z"></path>
	<path d="M37.803,77.251c0.15-0.398,0.363-0.738,0.64-1.019c0.276-0.28,0.608-0.497,0.995-0.651s0.821-0.23,1.303-0.23
		c0.481,0,0.917,0.076,1.309,0.23c0.391,0.154,0.724,0.371,1.001,0.651c0.276,0.28,0.489,0.62,0.64,1.019
		c0.15,0.399,0.225,0.844,0.225,1.333s-0.075,0.932-0.225,1.326c-0.15,0.396-0.363,0.732-0.64,1.013
		c-0.277,0.28-0.61,0.496-1.001,0.646c-0.391,0.15-0.827,0.226-1.309,0.226c-0.482,0-0.917-0.075-1.303-0.226
		c-0.387-0.149-0.719-0.365-0.995-0.646c-0.277-0.28-0.49-0.617-0.64-1.013c-0.15-0.395-0.225-0.837-0.225-1.326
		S37.653,77.65,37.803,77.251z M39.331,79.301c0.047,0.232,0.128,0.442,0.243,0.627c0.114,0.186,0.267,0.334,0.456,0.444
		c0.189,0.111,0.426,0.166,0.711,0.166c0.284,0,0.523-0.055,0.716-0.166c0.193-0.11,0.348-0.259,0.462-0.444
		c0.114-0.185,0.195-0.395,0.243-0.627c0.047-0.233,0.071-0.472,0.071-0.717s-0.024-0.485-0.071-0.723s-0.128-0.446-0.243-0.628
		s-0.269-0.329-0.462-0.444c-0.193-0.114-0.432-0.172-0.716-0.172c-0.285,0-0.521,0.058-0.711,0.172
		c-0.189,0.115-0.342,0.263-0.456,0.444s-0.195,0.391-0.243,0.628s-0.071,0.478-0.071,0.723S39.284,79.067,39.331,79.301z"></path>
	<path d="M44.934,76.416c0.173-0.261,0.395-0.47,0.663-0.628c0.269-0.157,0.57-0.27,0.906-0.337
		c0.335-0.067,0.673-0.101,1.013-0.101c0.308,0,0.62,0.021,0.936,0.064c0.316,0.044,0.604,0.129,0.865,0.255
		c0.261,0.127,0.474,0.302,0.64,0.527c0.166,0.225,0.249,0.523,0.249,0.895v3.186c0,0.276,0.016,0.541,0.047,0.794
		c0.032,0.253,0.087,0.442,0.166,0.568h-1.706c-0.032-0.095-0.058-0.191-0.077-0.29s-0.034-0.199-0.042-0.302
		c-0.269,0.276-0.584,0.47-0.947,0.58c-0.363,0.11-0.734,0.166-1.113,0.166c-0.292,0-0.565-0.036-0.817-0.106
		c-0.253-0.071-0.474-0.182-0.664-0.332s-0.337-0.34-0.444-0.568c-0.107-0.229-0.16-0.502-0.16-0.817
		c0-0.348,0.061-0.634,0.184-0.858c0.123-0.226,0.28-0.405,0.474-0.539c0.193-0.135,0.415-0.235,0.663-0.303
		c0.249-0.066,0.5-0.12,0.752-0.159c0.253-0.04,0.501-0.071,0.747-0.095c0.245-0.024,0.462-0.06,0.651-0.107
		c0.189-0.047,0.339-0.116,0.45-0.207c0.111-0.091,0.162-0.223,0.154-0.396c0-0.182-0.03-0.326-0.089-0.433
		s-0.138-0.189-0.237-0.249c-0.099-0.059-0.213-0.099-0.344-0.118s-0.271-0.029-0.42-0.029c-0.332,0-0.592,0.071-0.782,0.213
		c-0.189,0.143-0.3,0.379-0.332,0.711h-1.682C44.661,77.005,44.76,76.677,44.934,76.416z M48.256,78.791
		c-0.106,0.035-0.221,0.065-0.343,0.089c-0.123,0.023-0.251,0.044-0.385,0.06s-0.269,0.035-0.403,0.059
		c-0.126,0.024-0.25,0.056-0.373,0.095c-0.123,0.04-0.229,0.093-0.32,0.16s-0.164,0.152-0.219,0.255
		c-0.056,0.103-0.083,0.232-0.083,0.391c0,0.15,0.027,0.276,0.083,0.379c0.055,0.103,0.13,0.184,0.225,0.243
		c0.095,0.059,0.206,0.101,0.332,0.124c0.126,0.023,0.256,0.036,0.391,0.036c0.332,0,0.588-0.056,0.77-0.166
		s0.316-0.243,0.403-0.397c0.086-0.153,0.14-0.31,0.16-0.468c0.02-0.157,0.03-0.284,0.03-0.379v-0.628
		C48.451,78.706,48.362,78.756,48.256,78.791z"></path>
	<path d="M55.558,80.858c-0.197,0.331-0.456,0.57-0.775,0.716c-0.32,0.146-0.682,0.22-1.084,0.22c-0.458,0-0.86-0.089-1.208-0.267
		s-0.634-0.419-0.858-0.723c-0.226-0.304-0.396-0.653-0.51-1.048c-0.114-0.396-0.172-0.806-0.172-1.232
		c0-0.41,0.058-0.808,0.172-1.19s0.284-0.721,0.51-1.013c0.225-0.292,0.507-0.527,0.847-0.704c0.339-0.178,0.734-0.267,1.185-0.267
		c0.362,0,0.708,0.076,1.036,0.23c0.327,0.154,0.586,0.381,0.775,0.682h0.024v-3.08h1.682v8.457h-1.6v-0.781H55.558z M55.486,77.832
		c-0.047-0.233-0.128-0.438-0.242-0.616c-0.115-0.178-0.263-0.321-0.444-0.433c-0.182-0.11-0.411-0.166-0.688-0.166
		s-0.509,0.056-0.698,0.166c-0.189,0.111-0.342,0.257-0.456,0.438s-0.197,0.389-0.249,0.622c-0.051,0.232-0.077,0.476-0.077,0.729
		c0,0.236,0.028,0.474,0.083,0.71c0.056,0.237,0.145,0.448,0.267,0.634s0.276,0.336,0.462,0.45s0.409,0.172,0.669,0.172
		c0.276,0,0.508-0.055,0.693-0.166c0.186-0.11,0.334-0.259,0.444-0.444c0.11-0.185,0.189-0.396,0.236-0.633
		c0.048-0.237,0.071-0.482,0.071-0.734C55.558,78.308,55.534,78.064,55.486,77.832z"></path>
	<path d="M61.243,75.688c0.189-0.54,0.462-1.013,0.817-1.415s0.791-0.719,1.309-0.947c0.518-0.229,1.1-0.344,1.747-0.344
		c0.655,0,1.239,0.114,1.753,0.344c0.514,0.229,0.947,0.545,1.303,0.947s0.628,0.875,0.817,1.415
		c0.189,0.541,0.284,1.128,0.284,1.759c0,0.616-0.095,1.19-0.284,1.724s-0.462,0.997-0.817,1.392
		c-0.355,0.396-0.789,0.705-1.303,0.93c-0.514,0.226-1.098,0.338-1.753,0.338c-0.647,0-1.229-0.112-1.747-0.338
		c-0.518-0.225-0.953-0.534-1.309-0.93c-0.355-0.395-0.628-0.858-0.817-1.392s-0.284-1.107-0.284-1.724
		C60.959,76.815,61.054,76.229,61.243,75.688z M62.942,78.483c0.083,0.335,0.216,0.638,0.397,0.906s0.418,0.483,0.71,0.646
		c0.293,0.161,0.647,0.242,1.066,0.242s0.773-0.081,1.066-0.242c0.292-0.162,0.528-0.377,0.71-0.646s0.314-0.571,0.397-0.906
		c0.083-0.336,0.124-0.682,0.124-1.037c0-0.371-0.041-0.729-0.124-1.077s-0.216-0.657-0.397-0.93s-0.418-0.49-0.71-0.651
		c-0.293-0.162-0.647-0.243-1.066-0.243s-0.773,0.081-1.066,0.243c-0.292,0.161-0.528,0.379-0.71,0.651s-0.314,0.582-0.397,0.93
		c-0.082,0.348-0.124,0.706-0.124,1.077C62.818,77.802,62.86,78.147,62.942,78.483z"></path>
	<path d="M71.666,75.516v0.854h0.036c0.213-0.355,0.489-0.614,0.829-0.776c0.339-0.161,0.687-0.242,1.042-0.242
		c0.45,0,0.819,0.061,1.107,0.184c0.288,0.122,0.516,0.292,0.682,0.509c0.165,0.218,0.282,0.481,0.349,0.794
		c0.067,0.312,0.101,0.657,0.101,1.036v3.767H74.13v-3.459c0-0.505-0.079-0.882-0.236-1.131c-0.158-0.249-0.438-0.373-0.842-0.373
		c-0.458,0-0.789,0.137-0.994,0.408c-0.206,0.272-0.309,0.721-0.309,1.345v3.21h-1.682v-6.124H71.666z"></path>
	<path d="M78.596,80.171c0.252,0.245,0.615,0.367,1.089,0.367c0.34,0,0.632-0.085,0.877-0.255c0.244-0.17,0.395-0.35,0.45-0.539
		h1.48c-0.237,0.734-0.601,1.26-1.09,1.576c-0.489,0.315-1.082,0.474-1.776,0.474c-0.482,0-0.916-0.077-1.303-0.231
		c-0.388-0.154-0.715-0.373-0.983-0.657s-0.476-0.624-0.622-1.019s-0.219-0.829-0.219-1.303c0-0.458,0.074-0.885,0.225-1.279
		s0.363-0.736,0.64-1.024s0.606-0.516,0.989-0.682c0.383-0.165,0.808-0.248,1.273-0.248c0.521,0,0.975,0.101,1.362,0.302
		c0.387,0.201,0.704,0.472,0.953,0.812c0.249,0.339,0.428,0.727,0.539,1.16c0.11,0.435,0.149,0.889,0.118,1.362h-4.418
		C78.204,79.531,78.343,79.927,78.596,80.171z M80.496,76.949c-0.201-0.221-0.507-0.332-0.918-0.332
		c-0.269,0-0.491,0.046-0.669,0.137s-0.32,0.203-0.427,0.338c-0.106,0.134-0.182,0.276-0.225,0.426
		c-0.044,0.15-0.069,0.284-0.077,0.403h2.736C80.838,77.494,80.697,77.17,80.496,76.949z"></path>
</g>
</svg>