<svg version="1.1" id="Layer_1" xmlns="http://www.w3.org/2000/svg" xmlns:xlink="http://www.w3.org/1999/xlink" x="0px" y="0px" width="100px" height="100px" viewBox="0 0 100 100" enable-background="new 0 0 100 100" xml:space="preserve">
<path id="path2834" d="M50.604,1.75c-26.612,0-48.187,21.574-48.187,48.186s21.574,48.186,48.187,48.186
	c26.61,0,48.186-21.574,48.186-48.186S77.214,1.75,50.604,1.75z M50.604,91.238c-22.811,0-41.3-18.493-41.3-41.303
	c0-22.811,18.49-41.302,41.3-41.302c22.809,0,41.301,18.491,41.301,41.302C91.904,72.745,73.412,91.238,50.604,91.238z"></path>
<path d="M64.371,18.958c-3.876,0-7.45,1.282-10.328,3.442v-3.442h-6.882v30.977c-2.877-2.16-6.452-3.441-10.326-3.441
	c-9.504,0-17.209,7.704-17.209,17.209c0,9.503,7.706,17.209,17.209,17.209c3.875,0,7.449-1.282,10.326-3.439v3.439h6.882V49.936
	c2.876,2.16,6.452,3.44,10.328,3.44c9.504,0,17.208-7.704,17.208-17.208C81.579,26.663,73.875,18.958,64.371,18.958z M36.835,74.027
	c-5.703,0-10.325-4.623-10.325-10.324c0-5.704,4.622-10.328,10.325-10.328c5.702,0,10.326,4.624,10.326,10.328
	C47.161,69.404,42.539,74.027,36.835,74.027z M64.371,46.494c-5.704,0-10.328-4.624-10.328-10.326s4.624-10.326,10.328-10.326
	c5.701,0,10.324,4.623,10.324,10.325C74.695,41.87,70.072,46.494,64.371,46.494z"></path>
</svg>