<svg version="1.1" id="Layer_1" xmlns="http://www.w3.org/2000/svg" xmlns:xlink="http://www.w3.org/1999/xlink" x="0px" y="0px" width="100px" height="100px" viewBox="0 0 100 100" enable-background="new 0 0 100 100" xml:space="preserve">
<g>
	<path d="M75.439,50.41c-1.758-1.753-4.605-1.753-6.363,0L51.021,68.789l-3.911-3.498c-1.758-1.754-4.605-1.758-6.364,0
		c-1.758,1.758-1.753,4.605,0,6.363c0,0,2.514,2.452,4.552,4.439l0,0c0.291,0.283,0.563,0.549,0.826,0.804
		c0.977,0.954,1.702,1.659,1.729,1.684l0.065,0.065l0.005-0.004c0.795,0.703,1.828,1.146,2.971,1.146
		c1.31-0.004,2.479-0.571,3.301-1.463l0.004,0.018l21.24-21.57C77.193,55.02,77.197,52.168,75.439,50.41z"></path>
	<path d="M73.499,31.094c-1.564,0-3.078,0.207-4.572,0.461C62.77,20.549,51.014,13.098,37.501,13.098
		c-19.882,0-35.998,16.116-35.998,35.998c0,19.883,16.116,35.998,35.998,35.998c0.038,0,0.079,0,0.117,0h4.021l-0.125-0.125
		c-0.469-0.453-1.935-1.881-7.052-6.871l-0.044-0.042l-0.044-0.044c-0.736-0.738-1.342-1.552-1.872-2.401
		c-12.518-2.35-21.996-13.317-21.996-26.515c0-14.912,12.086-26.998,26.998-26.998c11.036,0,20.469,6.641,24.644,16.129
		c0,0,1.443,3.428,1.756,4.685c0.132-0.083,0.279-0.143,0.413-0.222c2.296-1.677,5.045-2.597,7.941-2.597
		c0.406,0,0.807,0.023,1.206,0.059c0.149-0.019,0.438-0.054,0.563-0.051c9.696,0.279,17.474,8.229,17.474,17.995
		c0,9.937-8.056,17.997-17.997,17.997c-1.123,0-2.67,0-4.456,0l-8.435,8.565l-0.428,0.435h4.133c3.956,0,7.313,0,9.186,0
		c14.912,0,26.998-12.09,26.993-26.997C100.497,43.185,88.411,31.094,73.499,31.094z"></path>
</g>
</svg>