<svg version="1.1" id="Layer_1" xmlns="http://www.w3.org/2000/svg" xmlns:xlink="http://www.w3.org/1999/xlink" x="0px" y="0px" width="82.037px" height="32.699px" viewBox="0 0 82.037 32.699" enable-background="new 0 0 82.037 32.699" xml:space="preserve">
<path d="M16.661,10.102v1.931h0.115c3.468-2.089,7.049-2.255,9.189-2.255c5.777,0,7.743,1.649,8.495,2.255
	c1.326-0.768,4.216-2.255,9.127-2.255c9.825,0,9.825,3.877,9.825,5.445v9.133h-7.918v-8.138c0-1.683,0-3.552-4.219-3.552
	c-2.079,0-4.218,0.633-4.968,1.567c-0.693,0.796-0.983,1.512-0.983,3.272v6.852h-7.916v-7.814c0-2.418,0.055-3.876-4.102-3.876
	c-2.082,0-4.219,0.55-5.028,1.374c-0.635,0.632-1.043,1.292-1.043,3.388v6.929H9.325V10.102H16.661z"></path>
<path d="M72.5,13.259h-5.744v5.708c0,2.018,0,2.678,2.35,2.678c1.112,0,2.098-0.13,3.148-0.33l0.246-0.027
	l0.742,2.899c-2.776,0.517-5.807,0.571-6.67,0.571c-2.592,0-5.931-0.385-7.164-1.446c-1.05-0.873-1.174-1.722-1.174-3.882v-6.171
	h-3.891v-2.98h3.891V7.463l8.521-2.211v5.027H72.5V13.259z"></path>
<path d="M5.451,32.414c-3.149-4.752-5.235-10.396-5.235-16.076c0-6.703,2.637-12.169,5.301-16.007H8.7
	c-2.361,5.234-3.969,9.678-3.969,16.146c0,7.419,2.631,13.138,3.83,15.729c0.033,0.039,0.105,0.174,0.105,0.209H5.451z"></path>
<path d="M76.545,0.401c3.146,4.75,5.233,10.399,5.233,16.075c0,6.702-2.633,12.17-5.3,16.008h-3.184
	c2.361-5.24,3.971-9.684,3.971-16.146c0-7.424-2.635-13.132-3.834-15.732c-0.033-0.034-0.102-0.172-0.102-0.204H76.545z"></path>
</svg>