<svg version="1.1" id="Layer_1" xmlns="http://www.w3.org/2000/svg" xmlns:xlink="http://www.w3.org/1999/xlink" x="0px" y="0px" width="100px" height="100px" viewBox="0 0 100 100" enable-background="new 0 0 100 100" xml:space="preserve">
<path d="M72.491,84.869c-1.877,0-5.241,0-9.204,0c0.058-0.493,0.147-0.973,0.147-1.479v-7.539c3.789,0,7.053,0,9.057,0
	c9.961,0,18.032-8.076,18.032-18.033c0-9.959-8.071-18.036-18.032-18.036c-2.774,0-5.386,0.651-7.729,1.777l-3.651-3.648
	c-4.183-9.508-13.634-16.164-24.691-16.164c-14.941,0-27.051,12.11-27.051,27.051c0,14.929,12.092,27.03,27.016,27.053v7.539
	c0,0.508,0.095,0.987,0.149,1.479c-0.037,0-0.08,0-0.116,0c-19.922,0-36.069-16.148-36.069-36.07
	c0-19.919,16.147-36.069,36.069-36.069c13.538,0,25.317,7.467,31.487,18.497c1.497-0.257,3.014-0.462,4.582-0.462
	c14.94,0,27.051,12.112,27.051,27.055C99.542,72.755,87.432,84.869,72.491,84.869z M33.972,61.776c-1.761-1.757-1.761-4.614,0-6.37
	L46.724,42.65c1.758-1.762,4.616-1.762,6.375,0l12.75,12.756c1.762,1.756,1.762,4.613,0,6.37c-1.759,1.762-4.615,1.762-6.374,0
	l-5.057-5.055v26.669c0,2.487-2.02,4.509-4.506,4.509c-2.492,0-4.51-2.021-4.51-4.509V56.722l-5.055,5.055
	C38.586,63.538,35.732,63.538,33.972,61.776z"></path>
</svg>