<svg version="1.1" id="Layer_1" xmlns="http://www.w3.org/2000/svg" xmlns:xlink="http://www.w3.org/1999/xlink" x="0px" y="0px" width="100px" height="99.988px" viewBox="0 0 100 99.988" enable-background="new 0 0 100 99.988" xml:space="preserve">
<path d="M38.087,76.213c-10.179,0-19.748-3.963-26.945-11.162C-3.714,50.193-3.714,26.017,11.144,11.162
	C18.34,3.963,27.909,0,38.088,0c10.181,0,19.749,3.963,26.944,11.161c7.196,7.197,11.161,16.767,11.161,26.945
	c0,10.178-3.965,19.748-11.161,26.944C57.836,72.249,48.267,76.213,38.087,76.213L38.087,76.213z M38.087,9.927
	c-7.526,0-14.604,2.932-19.927,8.252c-5.323,5.324-8.255,12.399-8.255,19.927s2.932,14.605,8.254,19.929
	c5.323,5.321,12.399,8.252,19.927,8.252c7.529,0,14.604-2.931,19.928-8.252c10.988-10.988,10.988-28.867,0-39.855
	C52.691,12.856,45.615,9.927,38.087,9.927L38.087,9.927z"></path>
<polygon points="92.257,99.988 99.999,92.248 72.07,64.319 64.329,72.06 "></polygon>
</svg>